<svg xmlns="http://www.w3.org/2000/svg" viewBox="0 0 738 476">
  <g fill="#102724">
    <path 
      d="M 330.00,273.00
          C 330.00,273.00 330.00,325.00 330.00,325.00
            330.00,325.00 312.00,325.00 312.00,325.00
            309.08,325.01 302.63,324.52 302.63,328.95
            302.63,330.21 303.31,331.14 304.32,331.83
            306.37,333.22 310.56,333.00 313.00,333.00
            313.00,333.00 423.00,333.00 423.00,333.00
            425.44,333.00 429.63,333.22 431.68,331.83
            434.38,329.99 433.71,326.84 430.85,325.60
            428.45,324.55 410.00,325.00 406.00,325.00
            406.00,325.00 406.00,273.00 406.00,273.00
            406.00,273.00 546.00,273.00 546.00,273.00
            550.00,272.99 553.11,273.04 557.00,271.78
            572.34,266.80 571.00,252.85 571.00,240.00
            571.00,240.00 571.00,219.00 571.00,219.00
            571.00,219.00 571.00,43.00 571.00,43.00
            570.97,25.69 560.20,19.03 544.00,19.00
            544.00,19.00 483.00,19.00 483.00,19.00
            483.00,19.00 192.00,19.00 192.00,19.00
            187.83,19.01 185.08,18.95 181.00,20.22
            164.06,25.51 165.00,36.56 165.00,51.00
            165.00,51.00 165.00,73.00 165.00,73.00
            165.00,73.00 165.00,249.00 165.00,249.00
            165.02,264.09 172.44,272.93 188.00,273.00
            188.00,273.00 330.00,273.00 330.00,273.00 Z
          M 189.00,27.07
          C 189.00,27.07 230.00,27.07 230.00,27.07
            230.00,27.07 308.00,27.07 308.00,27.07
            308.00,27.07 540.00,27.07 540.00,27.07
            546.13,27.01 554.19,27.28 558.58,32.21
            561.88,35.91 561.98,40.35 562.00,45.00
            562.00,45.00 562.00,79.00 562.00,79.00
            562.00,79.00 562.00,247.00 562.00,247.00
            561.98,259.90 558.56,264.93 545.00,265.00
            545.00,265.00 476.00,265.00 476.00,265.00
            476.00,265.00 193.00,265.00 193.00,265.00
            188.12,264.99 182.10,265.02 178.22,261.57
            174.50,258.26 174.06,253.64 174.00,249.00
            174.00,249.00 174.00,221.00 174.00,221.00
            174.00,221.00 174.00,79.00 174.00,79.00
            174.00,79.00 174.00,45.00 174.00,45.00
            174.02,40.78 174.07,36.68 176.70,33.10
            179.81,28.87 184.18,28.10 189.00,27.07 Z
          M 395.18,78.96
          C 391.19,81.14 390.64,84.05 388.75,88.00
            388.75,88.00 380.23,107.00 380.23,107.00
            380.23,107.00 345.86,184.00 345.86,184.00
            345.86,184.00 335.92,207.00 335.92,207.00
            334.93,210.70 336.53,214.57 340.90,213.29
            343.87,212.43 345.44,208.58 346.58,206.00
            346.58,206.00 355.14,187.00 355.14,187.00
            355.14,187.00 390.30,108.00 390.30,108.00
            390.30,108.00 400.02,86.00 400.02,86.00
            401.36,81.56 399.72,79.14 395.18,78.96 Z
          M 227.00,146.00
          C 227.00,146.00 259.00,130.25 259.00,130.25
            259.00,130.25 280.00,119.75 280.00,119.75
            280.00,119.75 302.92,108.65 302.92,108.65
            307.71,105.42 307.06,101.23 302.92,100.36
            298.64,99.44 287.25,106.12 283.00,108.25
            283.00,108.25 234.00,132.75 234.00,132.75
            234.00,132.75 218.02,140.26 218.02,140.26
            215.77,141.48 212.86,143.08 212.86,146.03
            212.86,149.03 215.72,150.88 218.02,152.20
            218.02,152.20 234.00,160.25 234.00,160.25
            234.00,160.25 289.00,187.25 289.00,187.25
            291.65,188.57 298.36,192.29 300.98,192.39
            303.94,192.49 306.39,190.22 305.34,187.20
            304.44,184.58 300.32,182.92 298.00,181.75
            298.00,181.75 280.00,172.75 280.00,172.75
            280.00,172.75 259.00,162.25 259.00,162.25
            259.00,162.25 227.00,146.00 227.00,146.00 Z
          M 509.00,146.00
          C 509.00,146.00 477.00,162.25 477.00,162.25
            477.00,162.25 456.00,172.75 456.00,172.75
            456.00,172.75 438.00,181.75 438.00,181.75
            435.68,182.92 431.56,184.58 430.66,187.20
            429.61,190.22 432.06,192.49 435.02,192.39
            437.64,192.29 444.35,188.57 447.00,187.25
            447.00,187.25 502.00,160.25 502.00,160.25
            502.00,160.25 518.98,151.65 518.98,151.65
            521.00,150.39 523.32,148.69 523.26,146.03
            523.18,143.13 520.20,141.46 517.98,140.26
            517.98,140.26 502.00,132.75 502.00,132.75
            502.00,132.75 453.00,108.25 453.00,108.25
            448.81,106.15 437.32,99.44 433.11,100.36
            429.28,101.19 428.28,105.14 433.11,108.53
            433.11,108.53 456.00,119.75 456.00,119.75
            456.00,119.75 477.00,130.25 477.00,130.25
            477.00,130.25 509.00,146.00 509.00,146.00 Z
          M 396.00,273.00
          C 396.00,273.00 396.00,325.00 396.00,325.00
            396.00,325.00 340.00,325.00 340.00,325.00
            340.00,325.00 340.00,273.00 340.00,273.00
            340.00,273.00 396.00,273.00 396.00,273.00 Z
          M 17.10,375.74
          C 10.08,380.08 12.00,389.73 12.00,397.00
            12.00,397.00 12.00,456.00 12.00,456.00
            12.01,460.81 11.70,466.11 16.13,469.26
            19.53,471.68 26.82,471.00 31.00,471.00
            31.00,471.00 64.00,471.00 64.00,471.00
            74.18,470.98 85.87,469.27 94.00,462.66
            99.79,457.95 103.83,452.01 106.30,445.00
            111.83,429.33 110.14,401.09 99.18,388.09
            84.89,371.13 61.79,375.00 42.00,375.00
            35.74,375.00 22.51,374.37 17.10,375.74 Z
          M 213.00,471.00
          C 213.00,471.00 213.00,454.00 213.00,454.00
            213.00,454.00 170.00,454.00 170.00,454.00
            165.05,454.00 153.10,454.51 149.00,452.97
            142.86,450.67 143.01,446.59 143.00,441.00
            143.00,441.00 143.00,392.00 143.00,392.00
            143.00,392.00 213.00,392.00 213.00,392.00
            213.00,392.00 213.00,375.10 213.00,375.10
            213.00,375.10 138.00,375.10 138.00,375.10
            136.42,375.00 133.45,374.94 132.00,375.10
            125.86,376.88 126.01,381.86 126.00,387.00
            126.00,387.00 126.00,446.00 126.00,446.00
            126.03,463.38 136.33,470.97 153.00,471.00
            153.00,471.00 213.00,471.00 213.00,471.00 Z
          M 220.00,375.00
          C 220.00,375.00 242.75,422.00 242.75,422.00
            242.75,422.00 255.25,448.00 255.25,448.00
            258.29,454.09 264.30,470.08 271.00,471.68
            281.77,474.26 285.66,458.22 289.25,451.00
            289.25,451.00 314.26,400.00 314.26,400.00
            317.52,393.25 324.13,381.55 326.00,375.00
            326.00,375.00 314.00,375.00 314.00,375.00
            312.32,375.01 309.74,374.94 308.21,375.60
            304.80,377.08 300.96,386.49 299.26,390.00
            299.26,390.00 283.75,422.00 283.75,422.00
            280.80,427.90 275.71,437.02 274.00,443.00
            274.00,443.00 272.00,443.00 272.00,443.00
            272.00,443.00 247.31,391.00 247.31,391.00
            240.03,375.16 241.52,375.02 232.00,375.00
            232.00,375.00 220.00,375.00 220.00,375.00 Z
          M 413.00,471.00
          C 413.00,471.00 430.00,471.00 430.00,471.00
            430.00,471.00 430.00,392.00 430.00,392.00
            430.00,392.00 482.00,392.00 482.00,392.00
            484.54,392.01 488.48,391.68 490.40,393.60
            492.03,395.23 491.96,397.86 492.00,400.00
            492.14,407.69 492.28,414.35 484.98,419.01
            479.33,422.62 473.37,422.00 467.00,422.00
            467.00,422.00 438.00,422.00 438.00,422.00
            438.00,422.00 438.00,439.00 438.00,439.00
            440.67,439.00 445.62,438.79 448.00,439.56
            451.48,440.69 455.20,444.34 458.00,446.73
            458.00,446.73 474.00,460.42 474.00,460.42
            480.06,465.63 483.57,470.84 492.00,471.00
            492.00,471.00 513.00,471.00 513.00,471.00
            513.00,471.00 478.00,439.00 478.00,439.00
            491.68,438.88 503.89,431.74 507.83,418.00
            509.53,412.06 509.01,403.36 509.00,397.00
            508.98,382.38 501.62,375.02 487.00,375.00
            487.00,375.00 426.00,375.00 426.00,375.00
            423.27,375.00 419.54,374.79 417.13,376.17
            411.33,379.51 413.00,392.97 413.00,399.00
            413.00,399.00 413.00,471.00 413.00,471.00 Z
          M 614.00,471.00
          C 614.00,471.00 614.00,454.00 614.00,454.00
            614.00,454.00 568.00,454.00 568.00,454.00
            562.85,454.00 552.27,454.73 548.11,452.07
            543.62,449.20 544.01,444.66 544.00,440.00
            544.00,440.00 544.00,392.00 544.00,392.00
            544.00,392.00 614.00,392.00 614.00,392.00
            614.00,392.00 614.00,375.00 614.00,375.00
            614.00,375.00 540.00,375.00 540.00,375.00
            529.92,375.02 527.06,376.32 527.00,387.00
            527.00,387.00 527.00,445.00 527.00,445.00
            527.02,456.23 530.51,465.28 542.00,469.24
            549.41,471.80 560.01,471.00 568.00,471.00
            568.00,471.00 614.00,471.00 614.00,471.00 Z
          M 628.00,454.00
          C 628.00,454.00 628.00,471.00 628.00,471.00
            628.00,471.00 694.00,471.00 694.00,471.00
            711.07,470.92 722.55,461.42 723.82,444.00
            724.05,440.85 723.34,437.05 722.51,434.00
            717.03,413.91 699.83,414.00 683.00,414.00
            683.00,414.00 661.00,414.00 661.00,414.00
            656.79,413.99 652.62,414.26 649.11,411.49
            642.92,406.62 643.94,396.87 651.02,393.31
            653.99,391.82 657.75,392.01 661.00,392.00
            661.00,392.00 686.00,392.00 686.00,392.00
            686.00,392.00 715.00,392.00 715.00,392.00
            715.00,392.00 715.00,375.00 715.00,375.00
            715.00,375.00 665.00,375.00 665.00,375.00
            655.79,375.00 646.97,373.94 639.00,379.64
            625.29,389.43 622.64,411.85 635.18,423.67
            642.34,430.42 652.57,431.99 662.00,432.00
            662.00,432.00 687.00,432.00 687.00,432.00
            690.64,432.00 696.84,431.55 699.98,433.17
            707.35,436.98 707.63,446.71 701.79,451.30
            698.17,454.14 693.35,453.99 689.00,454.00
            689.00,454.00 628.00,454.00 628.00,454.00 Z
          M 30.00,453.79
          C 30.00,453.79 30.00,392.00 30.00,392.00
            30.00,392.00 66.00,392.00 66.00,392.00
            69.39,392.02 71.67,392.02 75.00,392.93
            94.01,398.08 91.18,415.57 91.00,431.00
            90.92,437.36 89.37,442.94 84.67,447.53
            79.73,452.38 75.43,452.70 69.00,453.79
            69.00,453.79 30.00,453.79 30.00,453.79 Z
          M 150.00,414.00
          C 150.00,414.00 150.00,432.00 150.00,432.00
            150.00,432.00 205.00,432.00 205.00,432.00
            205.00,432.00 205.00,414.00 205.00,414.00
            205.00,414.00 150.00,414.00 150.00,414.00 Z
          M 551.00,414.00
          C 551.00,414.00 551.00,432.00 551.00,432.00
            551.00,432.00 606.00,432.00 606.00,432.00
            606.00,432.00 606.00,414.00 606.00,414.00
            606.00,414.00 551.00,414.00 551.00,414.00 Z
          M 332.00,415.00
          C 332.00,415.00 332.00,431.00 332.00,431.00
            332.00,431.00 395.00,431.00 395.00,431.00
            395.00,431.00 395.00,415.00 395.00,415.00
            395.00,415.00 332.00,415.00 332.00,415.00 Z" />
  </g>
</svg>