<svg xmlns="http://www.w3.org/2000/svg" viewBox="0 0 738 104">
  <g fill="#102724">
   <path d="M 17.11,3.74
           C 11.58,7.21 12.01,12.11 12.00,18.00
             12.00,18.00 12.00,84.00 12.00,84.00
             12.01,88.81 11.70,94.11 16.13,97.26
             19.53,99.68 26.82,99.00 31.00,99.00
             31.00,99.00 64.00,99.00 64.00,99.00
             74.18,98.98 85.87,97.27 94.00,90.66
             99.79,85.95 103.83,80.01 106.30,73.00
             111.83,57.33 110.14,29.09 99.18,16.09
             84.89,-0.87 61.79,3.00 42.00,3.00
             35.75,3.00 22.51,2.37 17.11,3.74 Z
           M 213.00,99.00
           C 213.00,99.00 213.00,82.00 213.00,82.00
             213.00,82.00 170.00,82.00 170.00,82.00
             165.05,82.00 153.10,82.51 149.00,80.97
             142.86,78.67 143.01,74.59 143.00,69.00
             143.00,69.00 143.00,20.00 143.00,20.00
             143.00,20.00 213.00,20.00 213.00,20.00
             213.00,20.00 213.00,3.10 213.00,3.10
             213.00,3.10 138.00,3.10 138.00,3.10
             136.42,3.00 133.45,2.94 132.00,3.10
             125.86,4.88 126.01,9.86 126.00,15.00
             126.00,15.00 126.00,74.00 126.00,74.00
             126.03,91.38 136.33,98.97 153.00,99.00
             153.00,99.00 213.00,99.00 213.00,99.00 Z
           M 220.00,3.00
           C 220.00,3.00 242.75,50.00 242.75,50.00
             242.75,50.00 255.25,76.00 255.25,76.00
             258.29,82.09 264.30,98.08 271.00,99.68
             281.77,102.26 285.66,86.22 289.25,79.00
             289.25,79.00 314.26,28.00 314.26,28.00
             317.52,21.25 324.13,9.55 326.00,3.00
             326.00,3.00 314.00,3.00 314.00,3.00
             312.32,3.01 309.74,2.94 308.21,3.60
             304.80,5.08 300.96,14.49 299.26,18.00
             299.26,18.00 283.75,50.00 283.75,50.00
             280.80,55.90 275.71,65.02 274.00,71.00
             274.00,71.00 272.00,71.00 272.00,71.00
             272.00,71.00 247.31,19.00 247.31,19.00
             240.03,3.16 241.52,3.02 232.00,3.00
             232.00,3.00 220.00,3.00 220.00,3.00 Z
           M 413.00,99.00
           C 413.00,99.00 430.00,99.00 430.00,99.00
             430.00,99.00 430.00,20.00 430.00,20.00
             430.00,20.00 482.00,20.00 482.00,20.00
             484.54,20.01 488.48,19.68 490.40,21.60
             492.03,23.23 491.96,25.86 492.00,28.00
             492.14,35.69 492.28,42.35 484.98,47.01
             479.33,50.62 473.37,50.00 467.00,50.00
             467.00,50.00 438.00,50.00 438.00,50.00
             438.00,50.00 438.00,67.00 438.00,67.00
             440.67,67.00 445.62,66.79 448.00,67.56
             451.48,68.69 455.20,72.34 458.00,74.73
             458.00,74.73 474.00,88.42 474.00,88.42
             480.06,93.63 483.57,98.84 492.00,99.00
             492.00,99.00 513.00,99.00 513.00,99.00
             513.00,99.00 478.00,67.00 478.00,67.00
             491.68,66.88 503.89,59.74 507.83,46.00
             509.53,40.06 509.01,31.36 509.00,25.00
             508.98,10.38 501.62,3.02 487.00,3.00
             487.00,3.00 426.00,3.00 426.00,3.00
             423.27,3.00 419.54,2.79 417.13,4.17
             411.33,7.51 413.00,20.97 413.00,27.00
             413.00,27.00 413.00,99.00 413.00,99.00 Z
           M 614.00,99.00
           C 614.00,99.00 614.00,82.00 614.00,82.00
             614.00,82.00 568.00,82.00 568.00,82.00
             562.85,82.00 552.27,82.73 548.11,80.07
             543.62,77.20 544.01,72.66 544.00,68.00
             544.00,68.00 544.00,20.00 544.00,20.00
             544.00,20.00 614.00,20.00 614.00,20.00
             614.00,20.00 614.00,3.00 614.00,3.00
             614.00,3.00 540.00,3.00 540.00,3.00
             529.92,3.02 527.06,4.32 527.00,15.00
             527.00,15.00 527.00,73.00 527.00,73.00
             527.02,84.23 530.51,93.28 542.00,97.24
             549.41,99.80 560.01,99.00 568.00,99.00
             568.00,99.00 614.00,99.00 614.00,99.00 Z
           M 628.00,82.00
           C 628.00,82.00 628.00,99.00 628.00,99.00
             628.00,99.00 694.00,99.00 694.00,99.00
             711.07,98.92 722.55,89.42 723.82,72.00
             724.05,68.85 723.34,65.05 722.51,62.00
             717.03,41.91 699.83,42.00 683.00,42.00
             683.00,42.00 661.00,42.00 661.00,42.00
             656.79,41.99 652.62,42.26 649.11,39.49
             642.92,34.62 643.94,24.87 651.02,21.31
             653.99,19.82 657.75,20.01 661.00,20.00
             661.00,20.00 686.00,20.00 686.00,20.00
             686.00,20.00 715.00,20.00 715.00,20.00
             715.00,20.00 715.00,3.00 715.00,3.00
             715.00,3.00 665.00,3.00 665.00,3.00
             655.79,3.00 646.97,1.94 639.00,7.64
             625.29,17.43 622.64,39.85 635.18,51.67
             642.34,58.42 652.57,59.99 662.00,60.00
             662.00,60.00 687.00,60.00 687.00,60.00
             690.64,60.00 696.84,59.55 699.98,61.17
             707.35,64.98 707.63,74.71 701.79,79.30
             698.17,82.14 693.35,81.99 689.00,82.00
             689.00,82.00 628.00,82.00 628.00,82.00 Z
           M 30.00,81.79
           C 30.00,81.79 30.00,20.00 30.00,20.00
             30.00,20.00 66.00,20.00 66.00,20.00
             69.39,20.02 71.67,20.02 75.00,20.93
             94.01,26.08 91.18,43.57 91.00,59.00
             90.92,65.36 89.37,70.94 84.67,75.53
             79.73,80.38 75.43,80.70 69.00,81.79
             69.00,81.79 30.00,81.79 30.00,81.79 Z
           M 150.00,42.00
           C 150.00,42.00 150.00,60.00 150.00,60.00
             150.00,60.00 205.00,60.00 205.00,60.00
             205.00,60.00 205.00,42.00 205.00,42.00
             205.00,42.00 150.00,42.00 150.00,42.00 Z
           M 551.00,42.00
           C 551.00,42.00 551.00,60.00 551.00,60.00
             551.00,60.00 606.00,60.00 606.00,60.00
             606.00,60.00 606.00,42.00 606.00,42.00
             606.00,42.00 551.00,42.00 551.00,42.00 Z
           M 332.00,43.00
           C 332.00,43.00 332.00,59.00 332.00,59.00
             332.00,59.00 395.00,59.00 395.00,59.00
             395.00,59.00 395.00,43.00 395.00,43.00
             395.00,43.00 332.00,43.00 332.00,43.00 Z" />
  </g>
</svg>
